<svg width="232" height="269" viewBox="0 0 232 269" fill="none" xmlns="http://www.w3.org/2000/svg">
<g filter="url(#filter0_d_11_1203)">
<rect x="63" y="39" width="136" height="156" rx="10" fill="#5BD6E2"/>
</g>
<path d="M115.53 137.318V141H116.804V137.318L119.982 131.242H118.568L116.16 136.184L113.752 131.242H112.338L115.53 137.318ZM124.588 134.28C125.904 134.28 127.024 135.106 127.01 136.604H122.166C122.306 135.106 123.342 134.28 124.588 134.28ZM128.172 138.634H126.8C126.52 139.46 125.792 140.048 124.644 140.048C123.342 140.048 122.25 139.194 122.152 137.64H128.284C128.312 137.374 128.326 137.15 128.326 136.87C128.326 134.77 126.87 133.202 124.644 133.202C122.404 133.202 120.85 134.728 120.85 137.15C120.85 139.586 122.46 141.126 124.644 141.126C126.548 141.126 127.78 140.034 128.172 138.634ZM129.532 137.136C129.532 139.516 131.114 141.126 133.158 141.126C134.572 141.126 135.566 140.398 136.028 139.572V141H137.316V133.328H136.028V134.728C135.58 133.93 134.6 133.202 133.172 133.202C131.114 133.202 129.532 134.742 129.532 137.136ZM136.028 137.15C136.028 138.956 134.824 140.006 133.424 140.006C132.024 140.006 130.834 138.942 130.834 137.136C130.834 135.33 132.024 134.308 133.424 134.308C134.824 134.308 136.028 135.372 136.028 137.15ZM140.743 136.828C140.743 135.05 141.667 134.504 142.885 134.504H143.221V133.188C142.003 133.188 141.177 133.72 140.743 134.574V133.328H139.469V141H140.743V136.828ZM150.207 138.914C150.151 136.17 145.699 137.164 145.699 135.344C145.699 134.728 146.259 134.28 147.197 134.28C148.219 134.28 148.807 134.84 148.863 135.61H150.137C150.053 134.112 148.933 133.202 147.239 133.202C145.531 133.202 144.425 134.168 144.425 135.344C144.425 138.2 148.961 137.206 148.961 138.914C148.961 139.544 148.401 140.048 147.393 140.048C146.315 140.048 145.657 139.488 145.587 138.746H144.271C144.355 140.146 145.615 141.126 147.407 141.126C149.101 141.126 150.207 140.174 150.207 138.914ZM100.073 151.228H94.8231V161H100.073V159.95H96.0971V156.59H99.6531V155.54H96.0971V152.278H100.073V151.228ZM106.005 161H107.447L104.969 157.122L107.433 153.328H106.103L104.367 156.17L102.547 153.328H101.105L103.583 157.192L101.105 161H102.435L104.185 158.144L106.005 161ZM109.974 154.742V153.328H108.7V164.64H109.974V159.586C110.45 160.37 111.444 161.126 112.844 161.126C114.902 161.126 116.484 159.516 116.484 157.136C116.484 154.742 114.902 153.202 112.844 153.202C111.444 153.202 110.436 153.93 109.974 154.742ZM115.182 157.136C115.182 158.942 113.992 160.006 112.578 160.006C111.192 160.006 109.974 158.956 109.974 157.15C109.974 155.372 111.192 154.308 112.578 154.308C113.992 154.308 115.182 155.33 115.182 157.136ZM121.423 154.28C122.739 154.28 123.859 155.106 123.845 156.604H119.001C119.141 155.106 120.177 154.28 121.423 154.28ZM125.007 158.634H123.635C123.355 159.46 122.627 160.048 121.479 160.048C120.177 160.048 119.085 159.194 118.987 157.64H125.119C125.147 157.374 125.161 157.15 125.161 156.87C125.161 154.77 123.705 153.202 121.479 153.202C119.239 153.202 117.685 154.728 117.685 157.15C117.685 159.586 119.295 161.126 121.479 161.126C123.383 161.126 124.615 160.034 125.007 158.634ZM128.117 156.828C128.117 155.05 129.041 154.504 130.259 154.504H130.595V153.188C129.377 153.188 128.551 153.72 128.117 154.574V153.328H126.843V161H128.117V156.828ZM132.065 161H133.339V153.328H132.065V161ZM132.723 152.082C133.185 152.082 133.563 151.704 133.563 151.214C133.563 150.724 133.185 150.346 132.723 150.346C132.233 150.346 131.855 150.724 131.855 151.214C131.855 151.704 132.233 152.082 132.723 152.082ZM138.773 154.28C140.089 154.28 141.209 155.106 141.195 156.604H136.351C136.491 155.106 137.527 154.28 138.773 154.28ZM142.357 158.634H140.985C140.705 159.46 139.977 160.048 138.829 160.048C137.527 160.048 136.435 159.194 136.337 157.64H142.469C142.497 157.374 142.511 157.15 142.511 156.87C142.511 154.77 141.055 153.202 138.829 153.202C136.589 153.202 135.035 154.728 135.035 157.15C135.035 159.586 136.645 161.126 138.829 161.126C140.733 161.126 141.965 160.034 142.357 158.634ZM149.806 161H151.066V156.478C151.066 154.28 149.708 153.188 147.93 153.188C146.894 153.188 145.97 153.622 145.466 154.42V153.328H144.192V161H145.466V156.758C145.466 155.106 146.362 154.294 147.664 154.294C148.952 154.294 149.806 155.092 149.806 156.66V161ZM152.671 157.15C152.671 159.586 154.225 161.126 156.409 161.126C158.313 161.126 159.559 160.062 159.951 158.536H158.579C158.299 159.502 157.543 160.048 156.409 160.048C155.009 160.048 153.973 159.054 153.973 157.15C153.973 155.274 155.009 154.28 156.409 154.28C157.543 154.28 158.313 154.868 158.579 155.792H159.951C159.559 154.182 158.313 153.202 156.409 153.202C154.225 153.202 152.671 154.742 152.671 157.15ZM164.913 154.28C166.229 154.28 167.349 155.106 167.335 156.604H162.491C162.631 155.106 163.667 154.28 164.913 154.28ZM168.497 158.634H167.125C166.845 159.46 166.117 160.048 164.969 160.048C163.667 160.048 162.575 159.194 162.477 157.64H168.609C168.637 157.374 168.651 157.15 168.651 156.87C168.651 154.77 167.195 153.202 164.969 153.202C162.729 153.202 161.175 154.728 161.175 157.15C161.175 159.586 162.785 161.126 164.969 161.126C166.873 161.126 168.105 160.034 168.497 158.634Z" fill="#C6F4F9"/>
<path d="M91.7251 105V98.7C91.7251 96.74 92.2151 95.13 93.1951 93.87C94.2031 92.61 95.8831 91.476 98.2351 90.468L103.191 88.326C104.423 87.794 105.347 87.136 105.963 86.352C106.579 85.568 106.887 84.574 106.887 83.37C106.887 82.138 106.495 81.13 105.711 80.346C104.955 79.562 103.863 79.17 102.435 79.17C100.979 79.17 99.8731 79.576 99.1171 80.388C98.3611 81.2 97.9831 82.292 97.9831 83.664H91.3051C91.3051 81.732 91.7251 79.996 92.5651 78.456C93.4051 76.916 94.6511 75.698 96.3031 74.802C97.9551 73.878 99.9991 73.416 102.435 73.416C104.843 73.416 106.873 73.85 108.525 74.718C110.177 75.586 111.423 76.762 112.263 78.246C113.131 79.702 113.565 81.326 113.565 83.118V83.622C113.565 85.974 112.921 87.92 111.633 89.46C110.345 91 108.357 92.344 105.669 93.492L100.755 95.634C99.9151 95.998 99.3131 96.39 98.9491 96.81C98.6131 97.202 98.4451 97.72 98.4451 98.364V99.078H113.607V105H91.7251ZM131.786 105.798C129.35 105.798 127.264 105.406 125.528 104.622C123.792 103.838 122.378 102.746 121.286 101.346C120.194 99.946 119.396 98.35 118.892 96.558C118.388 94.766 118.136 92.862 118.136 90.846V88.452C118.136 85.68 118.626 83.16 119.606 80.892C120.586 78.596 122.084 76.776 124.1 75.432C126.116 74.088 128.678 73.416 131.786 73.416C134.894 73.416 137.442 74.088 139.43 75.432C141.446 76.776 142.944 78.596 143.924 80.892C144.904 83.16 145.394 85.68 145.394 88.452V90.846C145.394 92.862 145.128 94.766 144.596 96.558C144.092 98.35 143.294 99.946 142.202 101.346C141.138 102.746 139.738 103.838 138.002 104.622C136.294 105.406 134.222 105.798 131.786 105.798ZM131.786 99.456C134.054 99.456 135.734 98.672 136.826 97.104C137.946 95.508 138.506 93.044 138.506 89.712C138.506 86.184 137.932 83.65 136.784 82.11C135.664 80.542 133.998 79.758 131.786 79.758C129.546 79.758 127.852 80.528 126.704 82.068C125.584 83.608 125.024 86.128 125.024 89.628C125.024 93.016 125.57 95.508 126.662 97.104C127.782 98.672 129.49 99.456 131.786 99.456ZM157.309 101.094V93.282H149.875V87.822H157.309V79.968H163.273V87.822H170.749V93.282H163.273V101.094H157.309Z" fill="white"/>
<g filter="url(#filter1_d_11_1203)">
<path d="M180.855 27.6354C183.181 28.5676 186.106 26.7303 187.388 23.5316C188.67 20.333 187.823 16.9843 185.497 16.0521C183.17 15.1199 180.246 16.9572 178.964 20.1558C177.682 23.3544 178.529 26.7032 180.855 27.6354Z" fill="url(#paint0_linear_11_1203)"/>
<path d="M176.351 47.3612C177.833 48.2166 178.294 49.1336 178.757 50.0536C179.223 50.9795 179.69 51.9084 181.2 52.7803C185.687 55.371 189.515 49.7221 188.247 45.0613C187.834 43.5394 187.797 42.0954 187.762 40.741C187.69 37.9473 187.627 35.5351 184.291 33.6088C180.957 31.6836 178.839 32.8347 176.385 34.1682C175.193 34.8158 173.923 35.5065 172.395 35.9088C167.721 37.1396 164.746 43.2807 169.234 45.8714C170.744 46.7433 171.782 46.6836 172.817 46.624C173.845 46.5649 174.87 46.5059 176.351 47.3612Z" fill="url(#paint1_linear_11_1203)"/>
<path d="M198.896 23.7608C200.867 25.3093 200.738 28.761 198.609 31.4704C196.48 34.1797 193.156 35.1208 191.186 33.5723C189.216 32.0238 189.344 28.5721 191.473 25.8627C193.603 23.1533 196.926 22.2123 198.896 23.7608Z" fill="url(#paint2_linear_11_1203)"/>
<path d="M170.317 30.4886C172.192 30.6247 173.858 28.7089 174.04 26.2096C174.221 23.7102 172.849 21.5738 170.974 21.4377C169.1 21.3016 167.433 23.2174 167.252 25.7167C167.07 28.2161 168.443 30.3525 170.317 30.4886Z" fill="url(#paint3_linear_11_1203)"/>
<path d="M201.493 39.0253C202.548 40.5806 201.722 42.9819 199.648 44.3887C197.575 45.7955 195.038 45.6751 193.983 44.1198C192.928 42.5645 193.754 40.1632 195.828 38.7564C197.901 37.3496 200.438 37.47 201.493 39.0253Z" fill="url(#paint4_linear_11_1203)"/>
</g>
<defs>
<filter id="filter0_d_11_1203" x="0" y="17" width="232" height="252" filterUnits="userSpaceOnUse" color-interpolation-filters="sRGB">
<feFlood flood-opacity="0" result="BackgroundImageFix"/>
<feColorMatrix in="SourceAlpha" type="matrix" values="0 0 0 0 0 0 0 0 0 0 0 0 0 0 0 0 0 0 127 0" result="hardAlpha"/>
<feOffset dx="-15" dy="26"/>
<feGaussianBlur stdDeviation="24"/>
<feComposite in2="hardAlpha" operator="out"/>
<feColorMatrix type="matrix" values="0 0 0 0 0.332308 0 0 0 0 0.94065 0 0 0 0 1 0 0 0 0.17 0"/>
<feBlend mode="normal" in2="BackgroundImageFix" result="effect1_dropShadow_11_1203"/>
<feBlend mode="normal" in="SourceGraphic" in2="effect1_dropShadow_11_1203" result="shape"/>
</filter>
<filter id="filter1_d_11_1203" x="148.017" y="0.80957" width="82.9348" height="85.623" filterUnits="userSpaceOnUse" color-interpolation-filters="sRGB">
<feFlood flood-opacity="0" result="BackgroundImageFix"/>
<feColorMatrix in="SourceAlpha" type="matrix" values="0 0 0 0 0 0 0 0 0 0 0 0 0 0 0 0 0 0 127 0" result="hardAlpha"/>
<feOffset dx="5" dy="9"/>
<feGaussianBlur stdDeviation="12"/>
<feComposite in2="hardAlpha" operator="out"/>
<feColorMatrix type="matrix" values="0 0 0 0 1 0 0 0 0 0.619608 0 0 0 0 0.494118 0 0 0 0.08 0"/>
<feBlend mode="normal" in2="BackgroundImageFix" result="effect1_dropShadow_11_1203"/>
<feBlend mode="normal" in="SourceGraphic" in2="effect1_dropShadow_11_1203" result="shape"/>
</filter>
<linearGradient id="paint0_linear_11_1203" x1="184" y1="20" x2="181.5" y2="64" gradientUnits="userSpaceOnUse">
<stop offset="0.277018" stop-color="#FFA68C"/>
<stop offset="1" stop-color="#FF926A"/>
</linearGradient>
<linearGradient id="paint1_linear_11_1203" x1="184" y1="20" x2="181.5" y2="64" gradientUnits="userSpaceOnUse">
<stop offset="0.277018" stop-color="#FFA68C"/>
<stop offset="1" stop-color="#FF926A"/>
</linearGradient>
<linearGradient id="paint2_linear_11_1203" x1="184" y1="20" x2="181.5" y2="64" gradientUnits="userSpaceOnUse">
<stop offset="0.277018" stop-color="#FFA68C"/>
<stop offset="1" stop-color="#FF926A"/>
</linearGradient>
<linearGradient id="paint3_linear_11_1203" x1="184" y1="20" x2="181.5" y2="64" gradientUnits="userSpaceOnUse">
<stop offset="0.277018" stop-color="#FFA68C"/>
<stop offset="1" stop-color="#FF926A"/>
</linearGradient>
<linearGradient id="paint4_linear_11_1203" x1="184" y1="20" x2="181.5" y2="64" gradientUnits="userSpaceOnUse">
<stop offset="0.277018" stop-color="#FFA68C"/>
<stop offset="1" stop-color="#FF926A"/>
</linearGradient>
</defs>
</svg>
